<svg xmlns="http://www.w3.org/2000/svg" viewBox="0 0 73.8 46.9"><defs><style>.cls-1{fill:#6b396b;}</style></defs><title>behance</title><g id="Layer_2" data-name="Layer 2"><g id="Слой_1" data-name="Слой 1"><g id="Behance"><path class="cls-1" d="M30.6,21.2a12.73,12.73,0,0,0,3.5-2.6,10.33,10.33,0,0,0,2.1-6.7,11.83,11.83,0,0,0-2.1-7C31.8,1.7,27.8.1,22.2,0H0V45.8H20.6a33.4,33.4,0,0,0,6.5-.6,12.94,12.94,0,0,0,5.2-2.3,12.21,12.21,0,0,0,3.2-3.6,13.16,13.16,0,0,0,2-7.3,12,12,0,0,0-1.8-6.7A9.24,9.24,0,0,0,30.6,21.2ZM9.2,7.9h10a16.46,16.46,0,0,1,5.4.7,4.19,4.19,0,0,1,2.5,4.2c0,1.9-.6,3.3-1.9,4a8.76,8.76,0,0,1-4.8,1.1H9.3V7.9ZM25,37.1a11.51,11.51,0,0,1-4.6.8H9.3V25.7H20.6a11.17,11.17,0,0,1,4.6.8,5,5,0,0,1,2.9,4.9C28,34.2,27,36.1,25,37.1Z"/><rect class="cls-1" x="47.7" y="2.8" width="18.4" height="4.4"/><path class="cls-1" d="M73.4,24.5a16,16,0,0,0-2.7-7,13,13,0,0,0-5.9-5,18.75,18.75,0,0,0-8-1.6,16.35,16.35,0,0,0-12.1,4.7C41.6,18.7,40,23.2,40,29.1c0,6.3,1.7,10.8,5.2,13.6a18.22,18.22,0,0,0,11.9,4.2c5.5,0,9.7-1.6,12.8-4.9A13.15,13.15,0,0,0,73,37H63.5a6.53,6.53,0,0,1-1.1,1.2,7.78,7.78,0,0,1-4.9,1.6,8.76,8.76,0,0,1-4.9-1.3c-2.2-1.4-3.4-3.8-3.5-7.1H73.8A39.5,39.5,0,0,0,73.4,24.5Zm-24.1.9a8.46,8.46,0,0,1,2.4-5.2A7,7,0,0,1,57,18.3a8.1,8.1,0,0,1,5.3,1.8,7.61,7.61,0,0,1,2.4,5.4H49.3Z"/></g></g></g></svg>