<svg xmlns="http://www.w3.org/2000/svg" viewBox="0 0 39.6 33"><defs><style>.cls-1{fill:#fff;}</style></defs><title>email</title><g id="Layer_2" data-name="Layer 2"><g id="Layer_1-2" data-name="Layer 1"><g id="Layer_2-2" data-name="Layer 2"><g id="Layer_1-2-2" data-name="Layer 1-2"><g id="packet"><path class="cls-1" d="M39.6,3.9A3.91,3.91,0,0,0,35.7,0H3.9A3.91,3.91,0,0,0,0,3.9V29.1A3.91,3.91,0,0,0,3.9,33H35.7a3.91,3.91,0,0,0,3.9-3.9h0ZM3.9,3.1H35.7a.79.79,0,0,1,.8.78v0h0L20.4,20a.74.74,0,0,1-1,0L3.3,3.9h0C3.1,3.5,3.5,3.1,3.9,3.1ZM35.7,29.9H3.9a.86.86,0,0,1-.8-.8V8.3l14,14a3.86,3.86,0,0,0,5.4,0l14-14V29.1a.79.79,0,0,1-.78.8Z"/></g></g></g></g></g></svg>