<svg xmlns="http://www.w3.org/2000/svg" viewBox="0 0 24 10.6"><defs><style>.cls-1{fill:none;}.cls-2{fill:#fff;}</style></defs><title>favicon</title><g id="Layer_2" data-name="Layer 2"><g id="Layer_1-2" data-name="Layer 1"><path class="cls-1" d="M19.77,2H15.1a4.83,4.83,0,0,0-1.34.86,1.08,1.08,0,0,1-.35.22l1.5,1.51a1,1,0,0,1-1.38,1.38l-3.3-3.31A2.25,2.25,0,0,0,8.62,2H4.23A2.28,2.28,0,0,0,2,4.24V6.36A2.28,2.28,0,0,0,4.23,8.64H8.92a4.85,4.85,0,0,0,1.51-.75,1,1,0,0,1,.3-.19L9.09,6.05a1,1,0,0,1,1.38-1.38L13.77,8a2.25,2.25,0,0,0,1.61.66h4.39a2.28,2.28,0,0,0,2.28-2.28V4.24A2.28,2.28,0,0,0,19.77,2Z"/><path class="cls-2" d="M19.77,0H15.06C14,0,12.42,1.4,12.4,1.42a1.07,1.07,0,0,0-.24.37l-.55-.55A4.2,4.2,0,0,0,8.62,0H4.23A4.24,4.24,0,0,0,0,4.24V6.36A4.24,4.24,0,0,0,4.23,10.6H8.94a5.92,5.92,0,0,0,2.85-1.3A1.31,1.31,0,0,0,12,9l.38.38a4.2,4.2,0,0,0,3,1.24h4.39A4.24,4.24,0,0,0,24,6.36V4.24A4.24,4.24,0,0,0,19.77,0Zm2.28,6.36a2.28,2.28,0,0,1-2.28,2.28H15.38A2.25,2.25,0,0,1,13.77,8l-3.3-3.31A1,1,0,0,0,9.09,6.05L10.73,7.7a1,1,0,0,0-.3.19,4.85,4.85,0,0,1-1.51.75H4.23A2.28,2.28,0,0,1,2,6.36V4.24A2.28,2.28,0,0,1,4.23,2H8.62a2.25,2.25,0,0,1,1.61.66l3.3,3.31a1,1,0,0,0,1.38-1.38L13.41,3a1.08,1.08,0,0,0,.35-.22A4.83,4.83,0,0,1,15.1,2h4.67a2.28,2.28,0,0,1,2.28,2.28Z"/></g></g></svg>