<svg xmlns="http://www.w3.org/2000/svg" viewBox="0 0 46.8 46.8"><defs><style>.cls-1{fill:#6b396b;}</style></defs><title>instagram</title><g id="Layer_2" data-name="Layer 2"><g id="Layer_1-2" data-name="Layer 1"><path class="cls-1" d="M35.1,0H11.7A11.78,11.78,0,0,0,0,11.7V35.1A11.78,11.78,0,0,0,11.7,46.8H35.1A11.78,11.78,0,0,0,46.8,35.1V11.7A11.78,11.78,0,0,0,35.1,0Zm7.8,35.1a7.81,7.81,0,0,1-7.8,7.8H11.7a7.81,7.81,0,0,1-7.8-7.8V11.7a7.81,7.81,0,0,1,7.8-7.8H35.1a7.81,7.81,0,0,1,7.8,7.8Z"/><circle class="cls-1" cx="36.1" cy="10.7" r="2.9"/><path class="cls-1" d="M23.4,11.7A11.7,11.7,0,1,0,35.1,23.4,11.65,11.65,0,0,0,23.4,11.7Zm0,19.5a7.8,7.8,0,1,1,7.8-7.8A7.81,7.81,0,0,1,23.4,31.2Z"/></g></g></svg>