<svg xmlns="http://www.w3.org/2000/svg" viewBox="0 0 57.6 46.7"><defs><style>.cls-1{fill:#6b396b;}</style></defs><title>twitter</title><g id="Layer_2" data-name="Layer 2"><g id="Layer_1-2" data-name="Layer 1"><path class="cls-1" d="M56,.8a24.37,24.37,0,0,1-7.5,2.9,11.81,11.81,0,0,0-20.4,8.1,12.41,12.41,0,0,0,.3,2.7A34,34,0,0,1,4,2.2,11.84,11.84,0,0,0,2.4,8.1a11.69,11.69,0,0,0,5.3,9.8,12.46,12.46,0,0,1-5.4-1.5v.1a11.9,11.9,0,0,0,9.5,11.6,10.55,10.55,0,0,1-3.1.4,15,15,0,0,1-2.2-.2,11.84,11.84,0,0,0,11,8.2A23.4,23.4,0,0,1,2.8,41.6,24.58,24.58,0,0,1,0,41.4a32.86,32.86,0,0,0,18.1,5.3c21.7,0,33.6-18,33.6-33.6V11.6a24.44,24.44,0,0,0,5.9-6.1,25.35,25.35,0,0,1-6.8,1.9A12.51,12.51,0,0,0,56,.8Z"/></g></g></svg>