<svg xmlns="http://www.w3.org/2000/svg" viewBox="0 0 73.82 46.9"><defs><style>.cls-1{fill:#fff;}</style></defs><title>behance</title><g id="Layer_2" data-name="Layer 2"><g id="Layer_1-2" data-name="Layer 1"><g id="Layer_2-2" data-name="Layer 2"><g id="Слой_1" data-name="Слой 1"><g id="Behance"><path class="cls-1" d="M30.6,21.2a12.77,12.77,0,0,0,3.5-2.6,10.36,10.36,0,0,0,2.1-6.7,11.8,11.8,0,0,0-2.1-7C31.8,1.7,27.8.1,22.2,0H0V45.8H20.6a33.74,33.74,0,0,0,6.5-.6,13,13,0,0,0,5.2-2.3,12.24,12.24,0,0,0,3.2-3.6,13.14,13.14,0,0,0,2-7.3,12,12,0,0,0-1.8-6.7A9.26,9.26,0,0,0,30.6,21.2ZM9.2,7.9h10a16.44,16.44,0,0,1,5.4.7,4.2,4.2,0,0,1,2.5,4.2c0,1.9-.6,3.3-1.9,4a8.74,8.74,0,0,1-4.8,1.1H9.3V7.9ZM25,37.1a11.48,11.48,0,0,1-4.6.8H9.3V25.7H20.6a11.15,11.15,0,0,1,4.6.8,5,5,0,0,1,2.9,4.9C28,34.2,27,36.1,25,37.1Z"/><rect class="cls-1" x="47.7" y="2.8" width="18.4" height="4.4"/><path class="cls-1" d="M73.4,24.5a16,16,0,0,0-2.7-7,13,13,0,0,0-5.9-5,18.83,18.83,0,0,0-8-1.6,16.34,16.34,0,0,0-12.1,4.7C41.6,18.7,40,23.2,40,29.1c0,6.3,1.7,10.8,5.2,13.6a18.25,18.25,0,0,0,11.9,4.2c5.5,0,9.7-1.6,12.8-4.9A13.08,13.08,0,0,0,73,37H63.5a6.59,6.59,0,0,1-1.1,1.2,7.79,7.79,0,0,1-4.9,1.6,8.72,8.72,0,0,1-4.9-1.3c-2.2-1.4-3.4-3.8-3.5-7.1H73.8A39.78,39.78,0,0,0,73.4,24.5Zm-24.1.9a8.45,8.45,0,0,1,2.4-5.2A7,7,0,0,1,57,18.3a8.11,8.11,0,0,1,5.3,1.8,7.62,7.62,0,0,1,2.4,5.4H49.3Z"/></g></g></g></g></g></svg>