<svg xmlns="http://www.w3.org/2000/svg" viewBox="0 0 57.6 46.71"><defs><style>.cls-1{fill:#fff;}</style></defs><title>twitter</title><g id="Layer_2" data-name="Layer 2"><g id="Layer_1-2" data-name="Layer 1"><g id="Layer_2-2" data-name="Layer 2"><g id="Layer_1-2-2" data-name="Layer 1-2"><path class="cls-1" d="M56,.81a24.65,24.65,0,0,1-7.5,2.9,11.81,11.81,0,0,0-20.4,8.1,12.34,12.34,0,0,0,.3,2.7A34,34,0,0,1,4,2.21a11.84,11.84,0,0,0-1.6,5.9,11.71,11.71,0,0,0,5.3,9.8,12.59,12.59,0,0,1-5.4-1.5v.1a11.91,11.91,0,0,0,9.5,11.6,10.82,10.82,0,0,1-3.1.4,16.21,16.21,0,0,1-2.2-.2,11.86,11.86,0,0,0,11,8.2,23.47,23.47,0,0,1-14.7,5.1,26.17,26.17,0,0,1-2.8-.2,32.93,32.93,0,0,0,18.1,5.3c21.7,0,33.6-18,33.6-33.6v-1.5a24.6,24.6,0,0,0,5.9-6.1,26,26,0,0,1-6.8,1.9A12.55,12.55,0,0,0,56,.81Z"/></g></g></g></g></svg>